<mxfile host="app.diagrams.net" agent="Mozilla/5.0 (Windows NT 10.0; Win64; x64) AppleWebKit/537.36 (KHTML, like Gecko) Chrome/139.0.0.0 Safari/537.36" version="28.1.0">
  <diagram name="Página-1" id="nXQz9VLSLlL5GwqTy-l1">
    <mxGraphModel dx="1426" dy="777" grid="1" gridSize="10" guides="1" tooltips="1" connect="1" arrows="1" fold="1" page="1" pageScale="1" pageWidth="827" pageHeight="1169" math="0" shadow="0" adaptiveColors="none">
      <root>
        <mxCell id="0" />
        <mxCell id="1" parent="0" />
        <mxCell id="yfyngpZ6kTW5o_8SKnOL-1" value="Pessoa" style="ellipse;shape=umlEntity;whiteSpace=wrap;html=1;" parent="1" vertex="1">
          <mxGeometry x="380" y="80" width="80" height="80" as="geometry" />
        </mxCell>
        <mxCell id="yfyngpZ6kTW5o_8SKnOL-2" value="Nutricionista" style="ellipse;shape=umlEntity;whiteSpace=wrap;html=1;" parent="1" vertex="1">
          <mxGeometry x="190" y="230" width="80" height="80" as="geometry" />
        </mxCell>
        <mxCell id="yfyngpZ6kTW5o_8SKnOL-25" value="" style="edgeStyle=orthogonalEdgeStyle;rounded=0;orthogonalLoop=1;jettySize=auto;html=1;endArrow=diamondThin;endFill=0;" parent="1" source="yfyngpZ6kTW5o_8SKnOL-3" target="yfyngpZ6kTW5o_8SKnOL-6" edge="1">
          <mxGeometry relative="1" as="geometry" />
        </mxCell>
        <mxCell id="yfyngpZ6kTW5o_8SKnOL-26" value="1.*" style="edgeLabel;html=1;align=center;verticalAlign=middle;resizable=0;points=[];" parent="yfyngpZ6kTW5o_8SKnOL-25" vertex="1" connectable="0">
          <mxGeometry x="0.7968" y="1" relative="1" as="geometry">
            <mxPoint x="9" as="offset" />
          </mxGeometry>
        </mxCell>
        <mxCell id="yfyngpZ6kTW5o_8SKnOL-3" value="Paciente" style="ellipse;shape=umlEntity;whiteSpace=wrap;html=1;" parent="1" vertex="1">
          <mxGeometry x="380" y="230" width="80" height="80" as="geometry" />
        </mxCell>
        <mxCell id="yfyngpZ6kTW5o_8SKnOL-4" value="Médico" style="ellipse;shape=umlEntity;whiteSpace=wrap;html=1;" parent="1" vertex="1">
          <mxGeometry x="570" y="230" width="80" height="80" as="geometry" />
        </mxCell>
        <mxCell id="yfyngpZ6kTW5o_8SKnOL-19" value="" style="edgeStyle=orthogonalEdgeStyle;rounded=0;orthogonalLoop=1;jettySize=auto;html=1;endArrow=none;startFill=0;" parent="1" source="yfyngpZ6kTW5o_8SKnOL-5" target="yfyngpZ6kTW5o_8SKnOL-2" edge="1">
          <mxGeometry relative="1" as="geometry" />
        </mxCell>
        <mxCell id="yfyngpZ6kTW5o_8SKnOL-20" value="1.*" style="edgeLabel;html=1;align=center;verticalAlign=middle;resizable=0;points=[];" parent="yfyngpZ6kTW5o_8SKnOL-19" vertex="1" connectable="0">
          <mxGeometry x="-0.3333" relative="1" as="geometry">
            <mxPoint x="10" y="13" as="offset" />
          </mxGeometry>
        </mxCell>
        <mxCell id="yfyngpZ6kTW5o_8SKnOL-5" value="Prescrever&lt;div&gt;dieta&lt;/div&gt;" style="ellipse;shape=umlEntity;whiteSpace=wrap;html=1;" parent="1" vertex="1">
          <mxGeometry x="220" y="370" width="80" height="80" as="geometry" />
        </mxCell>
        <mxCell id="yfyngpZ6kTW5o_8SKnOL-6" value="Consumo&lt;div&gt;alimento&lt;/div&gt;" style="ellipse;shape=umlEntity;whiteSpace=wrap;html=1;" parent="1" vertex="1">
          <mxGeometry x="380" y="380" width="80" height="80" as="geometry" />
        </mxCell>
        <mxCell id="yfyngpZ6kTW5o_8SKnOL-21" value="" style="edgeStyle=orthogonalEdgeStyle;rounded=0;orthogonalLoop=1;jettySize=auto;html=1;endArrow=none;startFill=0;" parent="1" source="yfyngpZ6kTW5o_8SKnOL-7" target="yfyngpZ6kTW5o_8SKnOL-4" edge="1">
          <mxGeometry relative="1" as="geometry" />
        </mxCell>
        <mxCell id="yfyngpZ6kTW5o_8SKnOL-22" value="1.*" style="edgeLabel;html=1;align=center;verticalAlign=middle;resizable=0;points=[];" parent="yfyngpZ6kTW5o_8SKnOL-21" vertex="1" connectable="0">
          <mxGeometry x="-0.7937" relative="1" as="geometry">
            <mxPoint x="10" y="-3" as="offset" />
          </mxGeometry>
        </mxCell>
        <mxCell id="yfyngpZ6kTW5o_8SKnOL-7" value="Receita&lt;div&gt;Suplementar&lt;/div&gt;" style="ellipse;shape=umlEntity;whiteSpace=wrap;html=1;" parent="1" vertex="1">
          <mxGeometry x="570" y="380" width="80" height="80" as="geometry" />
        </mxCell>
        <mxCell id="yfyngpZ6kTW5o_8SKnOL-8" value="" style="endArrow=block;endSize=16;endFill=0;html=1;rounded=0;entryX=0.5;entryY=1;entryDx=0;entryDy=0;exitX=0.5;exitY=0;exitDx=0;exitDy=0;edgeStyle=orthogonalEdgeStyle;" parent="1" source="yfyngpZ6kTW5o_8SKnOL-2" target="yfyngpZ6kTW5o_8SKnOL-1" edge="1">
          <mxGeometry width="160" relative="1" as="geometry">
            <mxPoint x="360" y="340" as="sourcePoint" />
            <mxPoint x="520" y="340" as="targetPoint" />
          </mxGeometry>
        </mxCell>
        <mxCell id="yfyngpZ6kTW5o_8SKnOL-9" value="" style="endArrow=block;endSize=16;endFill=0;html=1;rounded=0;entryX=0.5;entryY=1;entryDx=0;entryDy=0;exitX=0.5;exitY=0;exitDx=0;exitDy=0;" parent="1" source="yfyngpZ6kTW5o_8SKnOL-3" target="yfyngpZ6kTW5o_8SKnOL-1" edge="1">
          <mxGeometry width="160" relative="1" as="geometry">
            <mxPoint x="240" y="240" as="sourcePoint" />
            <mxPoint x="430" y="170" as="targetPoint" />
          </mxGeometry>
        </mxCell>
        <mxCell id="yfyngpZ6kTW5o_8SKnOL-10" value="" style="endArrow=block;endSize=16;endFill=0;html=1;rounded=0;entryX=0.5;entryY=1;entryDx=0;entryDy=0;exitX=0.5;exitY=0;exitDx=0;exitDy=0;edgeStyle=orthogonalEdgeStyle;" parent="1" source="yfyngpZ6kTW5o_8SKnOL-4" target="yfyngpZ6kTW5o_8SKnOL-1" edge="1">
          <mxGeometry width="160" relative="1" as="geometry">
            <mxPoint x="670" y="220" as="sourcePoint" />
            <mxPoint x="490" y="160" as="targetPoint" />
          </mxGeometry>
        </mxCell>
        <mxCell id="yfyngpZ6kTW5o_8SKnOL-24" value="" style="edgeStyle=orthogonalEdgeStyle;rounded=0;orthogonalLoop=1;jettySize=auto;html=1;endArrow=diamondThin;endFill=0;" parent="1" source="yfyngpZ6kTW5o_8SKnOL-23" target="yfyngpZ6kTW5o_8SKnOL-6" edge="1">
          <mxGeometry relative="1" as="geometry" />
        </mxCell>
        <mxCell id="yfyngpZ6kTW5o_8SKnOL-27" value="1.*" style="edgeLabel;html=1;align=center;verticalAlign=middle;resizable=0;points=[];" parent="yfyngpZ6kTW5o_8SKnOL-24" vertex="1" connectable="0">
          <mxGeometry x="-0.794" y="1" relative="1" as="geometry">
            <mxPoint x="-9" y="-3" as="offset" />
          </mxGeometry>
        </mxCell>
        <mxCell id="yfyngpZ6kTW5o_8SKnOL-23" value="Refeição&lt;div&gt;diária&lt;/div&gt;" style="ellipse;shape=umlEntity;whiteSpace=wrap;html=1;" parent="1" vertex="1">
          <mxGeometry x="380" y="530" width="80" height="80" as="geometry" />
        </mxCell>
        <mxCell id="gZ_IPukIXz_eJjO1my4D-1" value="Diagrama conceitual" style="shape=umlFrame;whiteSpace=wrap;html=1;pointerEvents=0;width=150;height=30;" parent="1" vertex="1">
          <mxGeometry x="160" y="50" width="540" height="590" as="geometry" />
        </mxCell>
      </root>
    </mxGraphModel>
  </diagram>
</mxfile>
